<svg version="1.1" id="Layer_1" xmlns="http://www.w3.org/2000/svg" xmlns:xlink="http://www.w3.org/1999/xlink" x="0px" y="0px"
	 width="100%" viewBox="0 0 240 246" enable-background="new 0 0 240 246" xml:space="preserve">
<path fill="#000000" opacity="1.000000" stroke="none" 
	d="M 1 93 M 124.9852 212.7834 C 189.4473 225.7048 196.1706 227.3674 203.1323 229.4831 C 218.9769 232.2724 218.8779 231.5056 219.7852 230.9951 C 222.4719 230.9596 225.6772 231.5924 224.9597 226.2854 C 224.131 224.5994 223.7458 222.321 222.4058 221.3179 C 206.9109 209.7171 191.3017 198.268 175.6562 186.8701 C 169.1441 182.126 162.473 177.6002 155.9512 172.1759 C 156.588 71.3074 157.203 63.6564 157.9707 55.1728 C 156.9822 51.4301 155.9937 47.6874 154.7374 43.3813 C 137.9122 22.2391 132.7388 18.8011 127.6665 14.4436 C 126.7461 14.5911 125.8256 14.7387 124.3636 15.4228 C 123.8958 18.2941 123.4279 21.1654 122.2598 23.7681 C 117.7832 87.9058 117.3171 98.4428 117.0884 108.9849 C 114.0006 186.4839 113.9534 188.166 113.2459 190.409 C 113.4712 194.9872 113.6966 199.5654 114.0544 204.8079 C 115.6955 206.2357 117.3367 207.6634 119.4132 209.5454 M 98.8003 100.7125 C 100.773 54.569 103 35 98 31 C 92.6336 23.8924 91.2648 22.4994 83 21 C 73.327 20.8852 52 16 44 27 C 37 72 38.7771 167.1814 38.0054 173.9162 C 38.354 194.5293 39.9903 197.2295 41.3339 200.5609 C 50.1892 209.7032 59.521 209.8837 68.7829 212.2957 C 85 213 91 212 95 203 z"/>
</svg>